<svg xmlns="http://www.w3.org/2000/svg" viewBox="0 0 200 200"><style>@media (prefers-color-scheme: dark) {rect {fill: #ffffff}}</style><rect x="11.8" y="137.8" width="14.4" height="14.4" fill="#000408"/><rect x="11.8" y="155.8" width="14.4" height="14.4" fill="#000408"/><rect x="11.8" y="173.8" width="14.4" height="14.4" fill="#000408"/><rect x="29.8" y="173.8" width="14.4" height="14.4" fill="#000408"/><rect x="47.8" y="173.8" width="14.4" height="14.4" fill="#000408"/><rect x="47.8" y="47.8" width="14.4" height="14.4" fill="#000408"/><rect x="47.8" y="65.8" width="14.4" height="14.4" fill="#000408"/><rect x="47.8" y="83.8" width="14.4" height="14.4" fill="#000408"/><rect x="47.8" y="101.8" width="14.4" height="14.4" fill="#000408"/><rect x="47.8" y="119.8" width="14.4" height="14.4" fill="#000408"/><rect x="47.8" y="137.8" width="14.4" height="14.4" fill="#000408"/><rect x="65.8" y="47.8" width="14.4" height="14.4" fill="#000408"/><rect x="65.8" y="137.8" width="14.4" height="14.4" fill="#000408"/><rect x="83.8" y="65.8" width="14.4" height="14.4" fill="#000408"/><rect x="83.8" y="83.8" width="14.4" height="14.4" fill="#000408"/><rect x="83.8" y="101.8" width="14.4" height="14.4" fill="#000408"/><rect x="83.8" y="119.8" width="14.4" height="14.4" fill="#000408"/><rect x="101.8" y="47.8" width="14.4" height="14.4" fill="#000408"/><rect x="119.8" y="47.8" width="14.4" height="14.4" fill="#000408"/><rect x="119.8" y="65.8" width="14.4" height="14.4" fill="#000408"/><rect x="119.8" y="83.8" width="14.4" height="14.4" fill="#000408"/><rect x="119.8" y="101.8" width="14.4" height="14.4" fill="#000408"/><rect x="119.8" y="119.8" width="14.4" height="14.4" fill="#000408"/><rect x="119.8" y="137.8" width="14.4" height="14.4" fill="#000408"/><rect x="137.8" y="47.8" width="14.4" height="14.4" fill="#000408"/><rect x="137.8" y="11.8" width="14.4" height="14.4" fill="#000408"/><rect x="155.8" y="11.8" width="14.4" height="14.4" fill="#000408"/><rect x="173.8" y="11.8" width="14.4" height="14.4" fill="#000408"/><rect x="173.8" y="29.8" width="14.4" height="14.4" fill="#000408"/><rect x="173.8" y="47.8" width="14.4" height="14.4" fill="#000408"/></svg>
